G04 start of page 10 for group -4015 idx -4015 *
G04 Title: (unknown), toppaste *
G04 Creator: pcb 20110918 *
G04 CreationDate: Sun 25 Aug 2013 03:08:56 AM GMT UTC *
G04 For: railfan *
G04 Format: Gerber/RS-274X *
G04 PCB-Dimensions: 85000 48000 *
G04 PCB-Coordinate-Origin: lower left *
%MOIN*%
%FSLAX25Y25*%
%LNTOPPASTE*%
%ADD45R,0.0165X0.0165*%
%ADD44R,0.0512X0.0512*%
%ADD43C,0.0001*%
%ADD42R,0.0230X0.0230*%
G54D42*X59300Y34700D02*X80700D01*
X59300D02*Y29100D01*
X80700Y34700D02*Y29100D01*
X59300Y13300D02*X80700D01*
X59300Y18900D02*Y13300D01*
X80700Y18900D02*Y13300D01*
G54D43*G36*
X58329Y30077D02*X63923Y35671D01*
X66044Y33550D01*
X60450Y27956D01*
X58329Y30077D01*
G37*
G36*
X76077Y35671D02*X81671Y30077D01*
X79550Y27956D01*
X73956Y33550D01*
X76077Y35671D01*
G37*
G36*
X60450Y20044D02*X66044Y14450D01*
X63923Y12329D01*
X58329Y17923D01*
X60450Y20044D01*
G37*
G36*
X73956Y14450D02*X79550Y20044D01*
X81671Y17923D01*
X76077Y12329D01*
X73956Y14450D01*
G37*
G36*
X58650Y35350D02*Y31750D01*
X62250D01*
Y35350D01*
X58650D01*
G37*
G36*
X77750D02*Y31750D01*
X81350D01*
Y35350D01*
X77750D01*
G37*
G36*
X58650Y16250D02*Y12650D01*
X62250D01*
Y16250D01*
X58650D01*
G37*
G36*
X77750D02*Y12650D01*
X81350D01*
Y16250D01*
X77750D01*
G37*
G54D44*X29607Y13543D02*X30393D01*
X29607Y6457D02*X30393D01*
X39607D02*X40393D01*
X39607Y13543D02*X40393D01*
X19607Y35543D02*X20393D01*
X19607Y28457D02*X20393D01*
X49607Y6457D02*X50393D01*
X49607Y13543D02*X50393D01*
X19607Y12457D02*X20393D01*
X19607Y19543D02*X20393D01*
X29607Y29543D02*X30393D01*
X29607Y22457D02*X30393D01*
G54D45*X40160Y24675D02*Y22525D01*
X42720Y24675D02*Y22525D01*
X45280Y24675D02*Y22525D01*
X47840Y24675D02*Y22525D01*
Y41475D02*Y39325D01*
X45280Y41475D02*Y39325D01*
X42720Y41475D02*Y39325D01*
X40160Y41475D02*Y39325D01*
M02*
