G04 start of page 12 for group -3984 idx -3984 *
G04 Title: (unknown), fab *
G04 Creator: pcb 20110918 *
G04 CreationDate: Sun 25 Aug 2013 03:08:56 AM GMT UTC *
G04 For: railfan *
G04 Format: Gerber/RS-274X *
G04 PCB-Dimensions: 85000 48000 *
G04 PCB-Coordinate-Origin: lower left *
%MOIN*%
%FSLAX25Y25*%
%LNFAB*%
%ADD49C,0.0100*%
%ADD48C,0.0075*%
%ADD47C,0.0060*%
%ADD46R,0.0080X0.0080*%
G54D46*X7500Y35600D02*Y32400D01*
X5900Y34000D02*X9100D01*
X7500Y25600D02*Y22400D01*
X5900Y24000D02*X9100D01*
X7500Y15600D02*Y12400D01*
X5900Y14000D02*X9100D01*
X15000Y90850D02*Y87650D01*
X13400Y89250D02*X16600D01*
G54D47*X135000Y91500D02*X136500Y88500D01*
X138000Y91500D01*
X136500Y88500D02*Y85500D01*
X139800Y88800D02*X142050D01*
X139800Y85500D02*X142800D01*
X139800Y91500D02*Y85500D01*
Y91500D02*X142800D01*
X147600D02*X148350Y90750D01*
X145350Y91500D02*X147600D01*
X144600Y90750D02*X145350Y91500D01*
X144600Y90750D02*Y89250D01*
X145350Y88500D01*
X147600D01*
X148350Y87750D01*
Y86250D01*
X147600Y85500D02*X148350Y86250D01*
X145350Y85500D02*X147600D01*
X144600Y86250D02*X145350Y85500D01*
X98000Y90750D02*X98750Y91500D01*
X100250D01*
X101000Y90750D01*
X100250Y85500D02*X101000Y86250D01*
X98750Y85500D02*X100250D01*
X98000Y86250D02*X98750Y85500D01*
Y88800D02*X100250D01*
X101000Y90750D02*Y89550D01*
Y88050D02*Y86250D01*
Y88050D02*X100250Y88800D01*
X101000Y89550D02*X100250Y88800D01*
X45000Y86250D02*X45750Y85500D01*
X45000Y90750D02*Y86250D01*
Y90750D02*X45750Y91500D01*
X47250D01*
X48000Y90750D01*
Y86250D01*
X47250Y85500D02*X48000Y86250D01*
X45750Y85500D02*X47250D01*
X45000Y87000D02*X48000Y90000D01*
X49800Y85500D02*X50550D01*
X52350Y86250D02*X53100Y85500D01*
X52350Y90750D02*Y86250D01*
Y90750D02*X53100Y91500D01*
X54600D01*
X55350Y90750D01*
Y86250D01*
X54600Y85500D02*X55350Y86250D01*
X53100Y85500D02*X54600D01*
X52350Y87000D02*X55350Y90000D01*
X57150Y90750D02*X57900Y91500D01*
X59400D01*
X60150Y90750D01*
X59400Y85500D02*X60150Y86250D01*
X57900Y85500D02*X59400D01*
X57150Y86250D02*X57900Y85500D01*
Y88800D02*X59400D01*
X60150Y90750D02*Y89550D01*
Y88050D02*Y86250D01*
Y88050D02*X59400Y88800D01*
X60150Y89550D02*X59400Y88800D01*
X61950Y86250D02*X62700Y85500D01*
X61950Y87450D02*Y86250D01*
Y87450D02*X63000Y88500D01*
X63900D01*
X64950Y87450D01*
Y86250D01*
X64200Y85500D02*X64950Y86250D01*
X62700Y85500D02*X64200D01*
X61950Y89550D02*X63000Y88500D01*
X61950Y90750D02*Y89550D01*
Y90750D02*X62700Y91500D01*
X64200D01*
X64950Y90750D01*
Y89550D01*
X63900Y88500D02*X64950Y89550D01*
X35000Y41000D02*Y39400D01*
Y41000D02*X36387Y41800D01*
X35000Y41000D02*X33613Y41800D01*
X39500Y19000D02*Y17400D01*
Y19000D02*X40887Y19800D01*
X39500Y19000D02*X38113Y19800D01*
X67500Y18000D02*Y16400D01*
Y18000D02*X68887Y18800D01*
X67500Y18000D02*X66113Y18800D01*
X72500Y18000D02*Y16400D01*
Y18000D02*X73887Y18800D01*
X72500Y18000D02*X71113Y18800D01*
X70000Y22000D02*Y20400D01*
Y22000D02*X71387Y22800D01*
X70000Y22000D02*X68613Y22800D01*
X65000Y22000D02*Y20400D01*
Y22000D02*X66387Y22800D01*
X65000Y22000D02*X63613Y22800D01*
X75000Y22000D02*Y20400D01*
Y22000D02*X76387Y22800D01*
X75000Y22000D02*X73613Y22800D01*
X35000Y34500D02*Y32900D01*
Y34500D02*X36387Y35300D01*
X35000Y34500D02*X33613Y35300D01*
X38000Y31000D02*Y29400D01*
Y31000D02*X39387Y31800D01*
X38000Y31000D02*X36613Y31800D01*
X41000Y34500D02*Y32900D01*
Y34500D02*X42387Y35300D01*
X41000Y34500D02*X39613Y35300D01*
X47000Y34500D02*Y32900D01*
Y34500D02*X48387Y35300D01*
X47000Y34500D02*X45613Y35300D01*
X44000Y31000D02*Y29400D01*
Y31000D02*X45387Y31800D01*
X44000Y31000D02*X42613Y31800D01*
X15000Y104250D02*Y102650D01*
Y104250D02*X16387Y105050D01*
X15000Y104250D02*X13613Y105050D01*
X135000Y106500D02*X136500Y103500D01*
X138000Y106500D01*
X136500Y103500D02*Y100500D01*
X139800Y103800D02*X142050D01*
X139800Y100500D02*X142800D01*
X139800Y106500D02*Y100500D01*
Y106500D02*X142800D01*
X147600D02*X148350Y105750D01*
X145350Y106500D02*X147600D01*
X144600Y105750D02*X145350Y106500D01*
X144600Y105750D02*Y104250D01*
X145350Y103500D01*
X147600D01*
X148350Y102750D01*
Y101250D01*
X147600Y100500D02*X148350Y101250D01*
X145350Y100500D02*X147600D01*
X144600Y101250D02*X145350Y100500D01*
X98000Y105300D02*X99200Y106500D01*
Y100500D01*
X98000D02*X100250D01*
X102050Y105750D02*X102800Y106500D01*
X105050D01*
X105800Y105750D01*
Y104250D01*
X102050Y100500D02*X105800Y104250D01*
X102050Y100500D02*X105800D01*
X45000Y101250D02*X45750Y100500D01*
X45000Y105750D02*Y101250D01*
Y105750D02*X45750Y106500D01*
X47250D01*
X48000Y105750D01*
Y101250D01*
X47250Y100500D02*X48000Y101250D01*
X45750Y100500D02*X47250D01*
X45000Y102000D02*X48000Y105000D01*
X49800Y100500D02*X50550D01*
X52350Y101250D02*X53100Y100500D01*
X52350Y105750D02*Y101250D01*
Y105750D02*X53100Y106500D01*
X54600D01*
X55350Y105750D01*
Y101250D01*
X54600Y100500D02*X55350Y101250D01*
X53100Y100500D02*X54600D01*
X52350Y102000D02*X55350Y105000D01*
X57150Y105750D02*X57900Y106500D01*
X60150D01*
X60900Y105750D01*
Y104250D01*
X57150Y100500D02*X60900Y104250D01*
X57150Y100500D02*X60900D01*
X62700Y101250D02*X63450Y100500D01*
X62700Y105750D02*Y101250D01*
Y105750D02*X63450Y106500D01*
X64950D01*
X65700Y105750D01*
Y101250D01*
X64950Y100500D02*X65700Y101250D01*
X63450Y100500D02*X64950D01*
X62700Y102000D02*X65700Y105000D01*
X3000Y121500D02*X3750Y120750D01*
X750Y121500D02*X3000D01*
X0Y120750D02*X750Y121500D01*
X0Y120750D02*Y119250D01*
X750Y118500D01*
X3000D01*
X3750Y117750D01*
Y116250D01*
X3000Y115500D02*X3750Y116250D01*
X750Y115500D02*X3000D01*
X0Y116250D02*X750Y115500D01*
X5550Y118500D02*Y116250D01*
X6300Y115500D01*
X8550Y118500D02*Y114000D01*
X7800Y113250D02*X8550Y114000D01*
X6300Y113250D02*X7800D01*
X5550Y114000D02*X6300Y113250D01*
Y115500D02*X7800D01*
X8550Y116250D01*
X11100Y117750D02*Y115500D01*
Y117750D02*X11850Y118500D01*
X12600D01*
X13350Y117750D01*
Y115500D01*
Y117750D02*X14100Y118500D01*
X14850D01*
X15600Y117750D01*
Y115500D01*
X10350Y118500D02*X11100Y117750D01*
X17400Y121500D02*Y115500D01*
Y116250D02*X18150Y115500D01*
X19650D01*
X20400Y116250D01*
Y117750D02*Y116250D01*
X19650Y118500D02*X20400Y117750D01*
X18150Y118500D02*X19650D01*
X17400Y117750D02*X18150Y118500D01*
X22200Y117750D02*Y116250D01*
Y117750D02*X22950Y118500D01*
X24450D01*
X25200Y117750D01*
Y116250D01*
X24450Y115500D02*X25200Y116250D01*
X22950Y115500D02*X24450D01*
X22200Y116250D02*X22950Y115500D01*
X27000Y121500D02*Y116250D01*
X27750Y115500D01*
X0Y112250D02*X29250D01*
X41750Y121500D02*Y115500D01*
X43700Y121500D02*X44750Y120450D01*
Y116550D01*
X43700Y115500D02*X44750Y116550D01*
X41000Y115500D02*X43700D01*
X41000Y121500D02*X43700D01*
G54D48*X46550Y120000D02*Y119850D01*
G54D47*Y117750D02*Y115500D01*
X50300Y118500D02*X51050Y117750D01*
X48800Y118500D02*X50300D01*
X48050Y117750D02*X48800Y118500D01*
X48050Y117750D02*Y116250D01*
X48800Y115500D01*
X51050Y118500D02*Y116250D01*
X51800Y115500D01*
X48800D02*X50300D01*
X51050Y116250D01*
X54350Y117750D02*Y115500D01*
Y117750D02*X55100Y118500D01*
X55850D01*
X56600Y117750D01*
Y115500D01*
Y117750D02*X57350Y118500D01*
X58100D01*
X58850Y117750D01*
Y115500D01*
X53600Y118500D02*X54350Y117750D01*
X60650Y115500D02*X61400D01*
X65900Y116250D02*X66650Y115500D01*
X65900Y120750D02*X66650Y121500D01*
X65900Y120750D02*Y116250D01*
X68450Y121500D02*X69950D01*
X69200D02*Y115500D01*
X68450D02*X69950D01*
X72500Y117750D02*Y115500D01*
Y117750D02*X73250Y118500D01*
X74000D01*
X74750Y117750D01*
Y115500D01*
X71750Y118500D02*X72500Y117750D01*
X77300Y118500D02*X79550D01*
X76550Y117750D02*X77300Y118500D01*
X76550Y117750D02*Y116250D01*
X77300Y115500D01*
X79550D01*
X81350Y121500D02*Y115500D01*
Y117750D02*X82100Y118500D01*
X83600D01*
X84350Y117750D01*
Y115500D01*
X86150Y121500D02*X86900Y120750D01*
Y116250D01*
X86150Y115500D02*X86900Y116250D01*
X41000Y112250D02*X88700D01*
X96050Y115500D02*X98000D01*
X95000Y116550D02*X96050Y115500D01*
X95000Y120450D02*Y116550D01*
Y120450D02*X96050Y121500D01*
X98000D01*
X99800Y117750D02*Y116250D01*
Y117750D02*X100550Y118500D01*
X102050D01*
X102800Y117750D01*
Y116250D01*
X102050Y115500D02*X102800Y116250D01*
X100550Y115500D02*X102050D01*
X99800Y116250D02*X100550Y115500D01*
X104600Y118500D02*Y116250D01*
X105350Y115500D01*
X106850D01*
X107600Y116250D01*
Y118500D02*Y116250D01*
X110150Y117750D02*Y115500D01*
Y117750D02*X110900Y118500D01*
X111650D01*
X112400Y117750D01*
Y115500D01*
X109400Y118500D02*X110150Y117750D01*
X114950Y121500D02*Y116250D01*
X115700Y115500D01*
X114200Y119250D02*X115700D01*
X95000Y112250D02*X117200D01*
X130750Y121500D02*Y115500D01*
X130000Y121500D02*X133000D01*
X133750Y120750D01*
Y119250D01*
X133000Y118500D02*X133750Y119250D01*
X130750Y118500D02*X133000D01*
X135550Y121500D02*Y116250D01*
X136300Y115500D01*
X140050Y118500D02*X140800Y117750D01*
X138550Y118500D02*X140050D01*
X137800Y117750D02*X138550Y118500D01*
X137800Y117750D02*Y116250D01*
X138550Y115500D01*
X140800Y118500D02*Y116250D01*
X141550Y115500D01*
X138550D02*X140050D01*
X140800Y116250D01*
X144100Y121500D02*Y116250D01*
X144850Y115500D01*
X143350Y119250D02*X144850D01*
X147100Y115500D02*X149350D01*
X146350Y116250D02*X147100Y115500D01*
X146350Y117750D02*Y116250D01*
Y117750D02*X147100Y118500D01*
X148600D01*
X149350Y117750D01*
X146350Y117000D02*X149350D01*
Y117750D02*Y117000D01*
X154150Y121500D02*Y115500D01*
X153400D02*X154150Y116250D01*
X151900Y115500D02*X153400D01*
X151150Y116250D02*X151900Y115500D01*
X151150Y117750D02*Y116250D01*
Y117750D02*X151900Y118500D01*
X153400D01*
X154150Y117750D01*
X157450Y118500D02*Y117750D01*
Y116250D02*Y115500D01*
X155950Y120750D02*Y120000D01*
Y120750D02*X156700Y121500D01*
X158200D01*
X158950Y120750D01*
Y120000D01*
X157450Y118500D02*X158950Y120000D01*
X130000Y112250D02*X160750D01*
X0Y136500D02*X3000D01*
X1500D02*Y130500D01*
X4800Y136500D02*Y130500D01*
Y132750D02*X5550Y133500D01*
X7050D01*
X7800Y132750D01*
Y130500D01*
X10350D02*X12600D01*
X9600Y131250D02*X10350Y130500D01*
X9600Y132750D02*Y131250D01*
Y132750D02*X10350Y133500D01*
X11850D01*
X12600Y132750D01*
X9600Y132000D02*X12600D01*
Y132750D02*Y132000D01*
X15150Y132750D02*Y130500D01*
Y132750D02*X15900Y133500D01*
X17400D01*
X14400D02*X15150Y132750D01*
X19950Y130500D02*X22200D01*
X19200Y131250D02*X19950Y130500D01*
X19200Y132750D02*Y131250D01*
Y132750D02*X19950Y133500D01*
X21450D01*
X22200Y132750D01*
X19200Y132000D02*X22200D01*
Y132750D02*Y132000D01*
X28950Y133500D02*X29700Y132750D01*
X27450Y133500D02*X28950D01*
X26700Y132750D02*X27450Y133500D01*
X26700Y132750D02*Y131250D01*
X27450Y130500D01*
X29700Y133500D02*Y131250D01*
X30450Y130500D01*
X27450D02*X28950D01*
X29700Y131250D01*
X33000Y132750D02*Y130500D01*
Y132750D02*X33750Y133500D01*
X35250D01*
X32250D02*X33000Y132750D01*
X37800Y130500D02*X40050D01*
X37050Y131250D02*X37800Y130500D01*
X37050Y132750D02*Y131250D01*
Y132750D02*X37800Y133500D01*
X39300D01*
X40050Y132750D01*
X37050Y132000D02*X40050D01*
Y132750D02*Y132000D01*
X44550Y135750D02*X45300Y136500D01*
X47550D01*
X48300Y135750D01*
Y134250D01*
X44550Y130500D02*X48300Y134250D01*
X44550Y130500D02*X48300D01*
X55800Y136500D02*Y130500D01*
X55050D02*X55800Y131250D01*
X53550Y130500D02*X55050D01*
X52800Y131250D02*X53550Y130500D01*
X52800Y132750D02*Y131250D01*
Y132750D02*X53550Y133500D01*
X55050D01*
X55800Y132750D01*
G54D48*X57600Y135000D02*Y134850D01*
G54D47*Y132750D02*Y130500D01*
X59850Y135750D02*Y130500D01*
Y135750D02*X60600Y136500D01*
X61350D01*
X59100Y133500D02*X60600D01*
X63600Y135750D02*Y130500D01*
Y135750D02*X64350Y136500D01*
X65100D01*
X62850Y133500D02*X64350D01*
X67350Y130500D02*X69600D01*
X66600Y131250D02*X67350Y130500D01*
X66600Y132750D02*Y131250D01*
Y132750D02*X67350Y133500D01*
X68850D01*
X69600Y132750D01*
X66600Y132000D02*X69600D01*
Y132750D02*Y132000D01*
X72150Y132750D02*Y130500D01*
Y132750D02*X72900Y133500D01*
X74400D01*
X71400D02*X72150Y132750D01*
X76950Y130500D02*X79200D01*
X76200Y131250D02*X76950Y130500D01*
X76200Y132750D02*Y131250D01*
Y132750D02*X76950Y133500D01*
X78450D01*
X79200Y132750D01*
X76200Y132000D02*X79200D01*
Y132750D02*Y132000D01*
X81750Y132750D02*Y130500D01*
Y132750D02*X82500Y133500D01*
X83250D01*
X84000Y132750D01*
Y130500D01*
X81000Y133500D02*X81750Y132750D01*
X86550Y136500D02*Y131250D01*
X87300Y130500D01*
X85800Y134250D02*X87300D01*
X94500Y136500D02*Y130500D01*
X93750D02*X94500Y131250D01*
X92250Y130500D02*X93750D01*
X91500Y131250D02*X92250Y130500D01*
X91500Y132750D02*Y131250D01*
Y132750D02*X92250Y133500D01*
X93750D01*
X94500Y132750D01*
X97050D02*Y130500D01*
Y132750D02*X97800Y133500D01*
X99300D01*
X96300D02*X97050Y132750D01*
G54D48*X101100Y135000D02*Y134850D01*
G54D47*Y132750D02*Y130500D01*
X102600Y136500D02*Y131250D01*
X103350Y130500D01*
X104850Y136500D02*Y131250D01*
X105600Y130500D01*
X110550D02*X112800D01*
X113550Y131250D01*
X112800Y132000D02*X113550Y131250D01*
X110550Y132000D02*X112800D01*
X109800Y132750D02*X110550Y132000D01*
X109800Y132750D02*X110550Y133500D01*
X112800D01*
X113550Y132750D01*
X109800Y131250D02*X110550Y130500D01*
G54D48*X115350Y135000D02*Y134850D01*
G54D47*Y132750D02*Y130500D01*
X116850Y133500D02*X119850D01*
X116850Y130500D02*X119850Y133500D01*
X116850Y130500D02*X119850D01*
X122400D02*X124650D01*
X121650Y131250D02*X122400Y130500D01*
X121650Y132750D02*Y131250D01*
Y132750D02*X122400Y133500D01*
X123900D01*
X124650Y132750D01*
X121650Y132000D02*X124650D01*
Y132750D02*Y132000D01*
X127200Y130500D02*X129450D01*
X130200Y131250D01*
X129450Y132000D02*X130200Y131250D01*
X127200Y132000D02*X129450D01*
X126450Y132750D02*X127200Y132000D01*
X126450Y132750D02*X127200Y133500D01*
X129450D01*
X130200Y132750D01*
X126450Y131250D02*X127200Y130500D01*
X134700Y133500D02*Y131250D01*
X135450Y130500D01*
X136950D01*
X137700Y131250D01*
Y133500D02*Y131250D01*
X140250Y130500D02*X142500D01*
X143250Y131250D01*
X142500Y132000D02*X143250Y131250D01*
X140250Y132000D02*X142500D01*
X139500Y132750D02*X140250Y132000D01*
X139500Y132750D02*X140250Y133500D01*
X142500D01*
X143250Y132750D01*
X139500Y131250D02*X140250Y130500D01*
X145800D02*X148050D01*
X145050Y131250D02*X145800Y130500D01*
X145050Y132750D02*Y131250D01*
Y132750D02*X145800Y133500D01*
X147300D01*
X148050Y132750D01*
X145050Y132000D02*X148050D01*
Y132750D02*Y132000D01*
X152850Y136500D02*Y130500D01*
X152100D02*X152850Y131250D01*
X150600Y130500D02*X152100D01*
X149850Y131250D02*X150600Y130500D01*
X149850Y132750D02*Y131250D01*
Y132750D02*X150600Y133500D01*
X152100D01*
X152850Y132750D01*
G54D48*X157350Y135000D02*Y134850D01*
G54D47*Y132750D02*Y130500D01*
X159600Y132750D02*Y130500D01*
Y132750D02*X160350Y133500D01*
X161100D01*
X161850Y132750D01*
Y130500D01*
X158850Y133500D02*X159600Y132750D01*
X167100Y136500D02*Y131250D01*
X167850Y130500D01*
X166350Y134250D02*X167850D01*
X169350Y136500D02*Y130500D01*
Y132750D02*X170100Y133500D01*
X171600D01*
X172350Y132750D01*
Y130500D01*
G54D48*X174150Y135000D02*Y134850D01*
G54D47*Y132750D02*Y130500D01*
X176400D02*X178650D01*
X179400Y131250D01*
X178650Y132000D02*X179400Y131250D01*
X176400Y132000D02*X178650D01*
X175650Y132750D02*X176400Y132000D01*
X175650Y132750D02*X176400Y133500D01*
X178650D01*
X179400Y132750D01*
X175650Y131250D02*X176400Y130500D01*
X183900Y136500D02*Y131250D01*
X184650Y130500D01*
X188400Y133500D02*X189150Y132750D01*
X186900Y133500D02*X188400D01*
X186150Y132750D02*X186900Y133500D01*
X186150Y132750D02*Y131250D01*
X186900Y130500D01*
X189150Y133500D02*Y131250D01*
X189900Y130500D01*
X186900D02*X188400D01*
X189150Y131250D01*
X191700Y133500D02*Y131250D01*
X192450Y130500D01*
X194700Y133500D02*Y129000D01*
X193950Y128250D02*X194700Y129000D01*
X192450Y128250D02*X193950D01*
X191700Y129000D02*X192450Y128250D01*
Y130500D02*X193950D01*
X194700Y131250D01*
X196500Y132750D02*Y131250D01*
Y132750D02*X197250Y133500D01*
X198750D01*
X199500Y132750D01*
Y131250D01*
X198750Y130500D02*X199500Y131250D01*
X197250Y130500D02*X198750D01*
X196500Y131250D02*X197250Y130500D01*
X201300Y133500D02*Y131250D01*
X202050Y130500D01*
X203550D01*
X204300Y131250D01*
Y133500D02*Y131250D01*
X206850Y136500D02*Y131250D01*
X207600Y130500D01*
X206100Y134250D02*X207600D01*
X209100Y129000D02*X210600Y130500D01*
X215100Y135300D02*X216300Y136500D01*
Y130500D01*
X215100D02*X217350D01*
X219150Y136500D02*X222150D01*
X219150D02*Y133500D01*
X219900Y134250D01*
X221400D01*
X222150Y133500D01*
Y131250D01*
X221400Y130500D02*X222150Y131250D01*
X219900Y130500D02*X221400D01*
X219150Y131250D02*X219900Y130500D01*
X226650Y136500D02*Y130500D01*
Y132750D02*X227400Y133500D01*
X228900D01*
X229650Y132750D01*
Y130500D01*
X231450Y132750D02*Y131250D01*
Y132750D02*X232200Y133500D01*
X233700D01*
X234450Y132750D01*
Y131250D01*
X233700Y130500D02*X234450Y131250D01*
X232200Y130500D02*X233700D01*
X231450Y131250D02*X232200Y130500D01*
X236250Y136500D02*Y131250D01*
X237000Y130500D01*
X239250D02*X241500D01*
X238500Y131250D02*X239250Y130500D01*
X238500Y132750D02*Y131250D01*
Y132750D02*X239250Y133500D01*
X240750D01*
X241500Y132750D01*
X238500Y132000D02*X241500D01*
Y132750D02*Y132000D01*
X244050Y130500D02*X246300D01*
X247050Y131250D01*
X246300Y132000D02*X247050Y131250D01*
X244050Y132000D02*X246300D01*
X243300Y132750D02*X244050Y132000D01*
X243300Y132750D02*X244050Y133500D01*
X246300D01*
X247050Y132750D01*
X243300Y131250D02*X244050Y130500D01*
X252300Y136500D02*Y131250D01*
X253050Y130500D01*
X251550Y134250D02*X253050D01*
X254550Y132750D02*Y131250D01*
Y132750D02*X255300Y133500D01*
X256800D01*
X257550Y132750D01*
Y131250D01*
X256800Y130500D02*X257550Y131250D01*
X255300Y130500D02*X256800D01*
X254550Y131250D02*X255300Y130500D01*
X260100Y136500D02*Y131250D01*
X260850Y130500D01*
X259350Y134250D02*X260850D01*
X264600Y133500D02*X265350Y132750D01*
X263100Y133500D02*X264600D01*
X262350Y132750D02*X263100Y133500D01*
X262350Y132750D02*Y131250D01*
X263100Y130500D01*
X265350Y133500D02*Y131250D01*
X266100Y130500D01*
X263100D02*X264600D01*
X265350Y131250D01*
X267900Y136500D02*Y131250D01*
X268650Y130500D01*
G54D49*X0Y48000D02*X85000D01*
Y0D01*
X0D01*
Y48000D01*
G54D47*Y-9500D02*X3000D01*
X3750Y-8750D01*
Y-6950D02*Y-8750D01*
X3000Y-6200D02*X3750Y-6950D01*
X750Y-6200D02*X3000D01*
X750Y-3500D02*Y-9500D01*
X0Y-3500D02*X3000D01*
X3750Y-4250D01*
Y-5450D01*
X3000Y-6200D02*X3750Y-5450D01*
X5550Y-7250D02*Y-8750D01*
Y-7250D02*X6300Y-6500D01*
X7800D01*
X8550Y-7250D01*
Y-8750D01*
X7800Y-9500D02*X8550Y-8750D01*
X6300Y-9500D02*X7800D01*
X5550Y-8750D02*X6300Y-9500D01*
X12600Y-6500D02*X13350Y-7250D01*
X11100Y-6500D02*X12600D01*
X10350Y-7250D02*X11100Y-6500D01*
X10350Y-7250D02*Y-8750D01*
X11100Y-9500D01*
X13350Y-6500D02*Y-8750D01*
X14100Y-9500D01*
X11100D02*X12600D01*
X13350Y-8750D01*
X16650Y-7250D02*Y-9500D01*
Y-7250D02*X17400Y-6500D01*
X18900D01*
X15900D02*X16650Y-7250D01*
X23700Y-3500D02*Y-9500D01*
X22950D02*X23700Y-8750D01*
X21450Y-9500D02*X22950D01*
X20700Y-8750D02*X21450Y-9500D01*
X20700Y-7250D02*Y-8750D01*
Y-7250D02*X21450Y-6500D01*
X22950D01*
X23700Y-7250D01*
X28200D02*Y-8750D01*
Y-7250D02*X28950Y-6500D01*
X30450D01*
X31200Y-7250D01*
Y-8750D01*
X30450Y-9500D02*X31200Y-8750D01*
X28950Y-9500D02*X30450D01*
X28200Y-8750D02*X28950Y-9500D01*
X33000Y-6500D02*Y-8750D01*
X33750Y-9500D01*
X35250D01*
X36000Y-8750D01*
Y-6500D02*Y-8750D01*
X38550Y-3500D02*Y-8750D01*
X39300Y-9500D01*
X37800Y-5750D02*X39300D01*
X40800Y-3500D02*Y-8750D01*
X41550Y-9500D01*
G54D48*X43050Y-5000D02*Y-5150D01*
G54D47*Y-7250D02*Y-9500D01*
X45300Y-7250D02*Y-9500D01*
Y-7250D02*X46050Y-6500D01*
X46800D01*
X47550Y-7250D01*
Y-9500D01*
X44550Y-6500D02*X45300Y-7250D01*
X50100Y-9500D02*X52350D01*
X49350Y-8750D02*X50100Y-9500D01*
X49350Y-7250D02*Y-8750D01*
Y-7250D02*X50100Y-6500D01*
X51600D01*
X52350Y-7250D01*
X49350Y-8000D02*X52350D01*
Y-7250D02*Y-8000D01*
G54D48*X56850Y-5000D02*Y-5150D01*
G54D47*Y-7250D02*Y-9500D01*
X59100D02*X61350D01*
X62100Y-8750D01*
X61350Y-8000D02*X62100Y-8750D01*
X59100Y-8000D02*X61350D01*
X58350Y-7250D02*X59100Y-8000D01*
X58350Y-7250D02*X59100Y-6500D01*
X61350D01*
X62100Y-7250D01*
X58350Y-8750D02*X59100Y-9500D01*
X67350Y-3500D02*Y-8750D01*
X68100Y-9500D01*
X66600Y-5750D02*X68100D01*
X69600Y-3500D02*Y-9500D01*
Y-7250D02*X70350Y-6500D01*
X71850D01*
X72600Y-7250D01*
Y-9500D01*
X75150D02*X77400D01*
X74400Y-8750D02*X75150Y-9500D01*
X74400Y-7250D02*Y-8750D01*
Y-7250D02*X75150Y-6500D01*
X76650D01*
X77400Y-7250D01*
X74400Y-8000D02*X77400D01*
Y-7250D02*Y-8000D01*
X82650Y-6500D02*X84900D01*
X81900Y-7250D02*X82650Y-6500D01*
X81900Y-7250D02*Y-8750D01*
X82650Y-9500D01*
X84900D01*
X87450D02*X89700D01*
X86700Y-8750D02*X87450Y-9500D01*
X86700Y-7250D02*Y-8750D01*
Y-7250D02*X87450Y-6500D01*
X88950D01*
X89700Y-7250D01*
X86700Y-8000D02*X89700D01*
Y-7250D02*Y-8000D01*
X92250Y-7250D02*Y-9500D01*
Y-7250D02*X93000Y-6500D01*
X93750D01*
X94500Y-7250D01*
Y-9500D01*
X91500Y-6500D02*X92250Y-7250D01*
X97050Y-3500D02*Y-8750D01*
X97800Y-9500D01*
X96300Y-5750D02*X97800D01*
X100050Y-9500D02*X102300D01*
X99300Y-8750D02*X100050Y-9500D01*
X99300Y-7250D02*Y-8750D01*
Y-7250D02*X100050Y-6500D01*
X101550D01*
X102300Y-7250D01*
X99300Y-8000D02*X102300D01*
Y-7250D02*Y-8000D01*
X104850Y-7250D02*Y-9500D01*
Y-7250D02*X105600Y-6500D01*
X107100D01*
X104100D02*X104850Y-7250D01*
X108900Y-3500D02*Y-8750D01*
X109650Y-9500D01*
G54D48*X111150Y-5000D02*Y-5150D01*
G54D47*Y-7250D02*Y-9500D01*
X113400Y-7250D02*Y-9500D01*
Y-7250D02*X114150Y-6500D01*
X114900D01*
X115650Y-7250D01*
Y-9500D01*
X112650Y-6500D02*X113400Y-7250D01*
X118200Y-9500D02*X120450D01*
X117450Y-8750D02*X118200Y-9500D01*
X117450Y-7250D02*Y-8750D01*
Y-7250D02*X118200Y-6500D01*
X119700D01*
X120450Y-7250D01*
X117450Y-8000D02*X120450D01*
Y-7250D02*Y-8000D01*
X124950Y-7250D02*Y-8750D01*
Y-7250D02*X125700Y-6500D01*
X127200D01*
X127950Y-7250D01*
Y-8750D01*
X127200Y-9500D02*X127950Y-8750D01*
X125700Y-9500D02*X127200D01*
X124950Y-8750D02*X125700Y-9500D01*
X130500Y-4250D02*Y-9500D01*
Y-4250D02*X131250Y-3500D01*
X132000D01*
X129750Y-6500D02*X131250D01*
X136950Y-3500D02*Y-8750D01*
X137700Y-9500D01*
X136200Y-5750D02*X137700D01*
X139200Y-3500D02*Y-9500D01*
Y-7250D02*X139950Y-6500D01*
X141450D01*
X142200Y-7250D01*
Y-9500D01*
G54D48*X144000Y-5000D02*Y-5150D01*
G54D47*Y-7250D02*Y-9500D01*
X146250D02*X148500D01*
X149250Y-8750D01*
X148500Y-8000D02*X149250Y-8750D01*
X146250Y-8000D02*X148500D01*
X145500Y-7250D02*X146250Y-8000D01*
X145500Y-7250D02*X146250Y-6500D01*
X148500D01*
X149250Y-7250D01*
X145500Y-8750D02*X146250Y-9500D01*
X154500Y-7250D02*Y-11750D01*
X153750Y-6500D02*X154500Y-7250D01*
X155250Y-6500D01*
X156750D01*
X157500Y-7250D01*
Y-8750D01*
X156750Y-9500D02*X157500Y-8750D01*
X155250Y-9500D02*X156750D01*
X154500Y-8750D02*X155250Y-9500D01*
X161550Y-6500D02*X162300Y-7250D01*
X160050Y-6500D02*X161550D01*
X159300Y-7250D02*X160050Y-6500D01*
X159300Y-7250D02*Y-8750D01*
X160050Y-9500D01*
X162300Y-6500D02*Y-8750D01*
X163050Y-9500D01*
X160050D02*X161550D01*
X162300Y-8750D01*
X165600Y-3500D02*Y-8750D01*
X166350Y-9500D01*
X164850Y-5750D02*X166350D01*
X167850Y-3500D02*Y-9500D01*
Y-7250D02*X168600Y-6500D01*
X170100D01*
X170850Y-7250D01*
Y-9500D01*
X200750Y76500D02*Y70500D01*
X202700Y76500D02*X203750Y75450D01*
Y71550D01*
X202700Y70500D02*X203750Y71550D01*
X200000Y70500D02*X202700D01*
X200000Y76500D02*X202700D01*
X207800Y73500D02*X208550Y72750D01*
X206300Y73500D02*X207800D01*
X205550Y72750D02*X206300Y73500D01*
X205550Y72750D02*Y71250D01*
X206300Y70500D01*
X208550Y73500D02*Y71250D01*
X209300Y70500D01*
X206300D02*X207800D01*
X208550Y71250D01*
X211850Y76500D02*Y71250D01*
X212600Y70500D01*
X211100Y74250D02*X212600D01*
X214850Y70500D02*X217100D01*
X214100Y71250D02*X214850Y70500D01*
X214100Y72750D02*Y71250D01*
Y72750D02*X214850Y73500D01*
X216350D01*
X217100Y72750D01*
X214100Y72000D02*X217100D01*
Y72750D02*Y72000D01*
X218900Y74250D02*X219650D01*
X218900Y72750D02*X219650D01*
X227150Y76500D02*X227900Y75750D01*
X224900Y76500D02*X227150D01*
X224150Y75750D02*X224900Y76500D01*
X224150Y75750D02*Y74250D01*
X224900Y73500D01*
X227150D01*
X227900Y72750D01*
Y71250D01*
X227150Y70500D02*X227900Y71250D01*
X224900Y70500D02*X227150D01*
X224150Y71250D02*X224900Y70500D01*
X229700Y73500D02*Y71250D01*
X230450Y70500D01*
X231950D01*
X232700Y71250D01*
Y73500D02*Y71250D01*
X235250Y72750D02*Y70500D01*
Y72750D02*X236000Y73500D01*
X236750D01*
X237500Y72750D01*
Y70500D01*
X234500Y73500D02*X235250Y72750D01*
X242000Y75750D02*X242750Y76500D01*
X245000D01*
X245750Y75750D01*
Y74250D01*
X242000Y70500D02*X245750Y74250D01*
X242000Y70500D02*X245750D01*
X247550Y76500D02*X250550D01*
X247550D02*Y73500D01*
X248300Y74250D01*
X249800D01*
X250550Y73500D01*
Y71250D01*
X249800Y70500D02*X250550Y71250D01*
X248300Y70500D02*X249800D01*
X247550Y71250D02*X248300Y70500D01*
X255050Y75000D02*Y70500D01*
Y75000D02*X256100Y76500D01*
X257750D01*
X258800Y75000D01*
Y70500D01*
X255050Y73500D02*X258800D01*
X260600D02*Y71250D01*
X261350Y70500D01*
X262850D01*
X263600Y71250D01*
Y73500D02*Y71250D01*
X267650Y73500D02*X268400Y72750D01*
X266150Y73500D02*X267650D01*
X265400Y72750D02*X266150Y73500D01*
X265400Y72750D02*Y71250D01*
X266150Y70500D01*
X267650D01*
X268400Y71250D01*
X265400Y69000D02*X266150Y68250D01*
X267650D01*
X268400Y69000D01*
Y73500D02*Y69000D01*
X272900Y75750D02*X273650Y76500D01*
X275900D01*
X276650Y75750D01*
Y74250D01*
X272900Y70500D02*X276650Y74250D01*
X272900Y70500D02*X276650D01*
X278450Y71250D02*X279200Y70500D01*
X278450Y75750D02*Y71250D01*
Y75750D02*X279200Y76500D01*
X280700D01*
X281450Y75750D01*
Y71250D01*
X280700Y70500D02*X281450Y71250D01*
X279200Y70500D02*X280700D01*
X278450Y72000D02*X281450Y75000D01*
X283250Y75300D02*X284450Y76500D01*
Y70500D01*
X283250D02*X285500D01*
X287300Y75750D02*X288050Y76500D01*
X289550D01*
X290300Y75750D01*
X289550Y70500D02*X290300Y71250D01*
X288050Y70500D02*X289550D01*
X287300Y71250D02*X288050Y70500D01*
Y73800D02*X289550D01*
X290300Y75750D02*Y74550D01*
Y73050D02*Y71250D01*
Y73050D02*X289550Y73800D01*
X290300Y74550D02*X289550Y73800D01*
X294800Y71250D02*X295550Y70500D01*
X294800Y75750D02*Y71250D01*
Y75750D02*X295550Y76500D01*
X297050D01*
X297800Y75750D01*
Y71250D01*
X297050Y70500D02*X297800Y71250D01*
X295550Y70500D02*X297050D01*
X294800Y72000D02*X297800Y75000D01*
X299600Y75750D02*X300350Y76500D01*
X301850D01*
X302600Y75750D01*
X301850Y70500D02*X302600Y71250D01*
X300350Y70500D02*X301850D01*
X299600Y71250D02*X300350Y70500D01*
Y73800D02*X301850D01*
X302600Y75750D02*Y74550D01*
Y73050D02*Y71250D01*
Y73050D02*X301850Y73800D01*
X302600Y74550D02*X301850Y73800D01*
X304400Y74250D02*X305150D01*
X304400Y72750D02*X305150D01*
X306950Y71250D02*X307700Y70500D01*
X306950Y75750D02*Y71250D01*
Y75750D02*X307700Y76500D01*
X309200D01*
X309950Y75750D01*
Y71250D01*
X309200Y70500D02*X309950Y71250D01*
X307700Y70500D02*X309200D01*
X306950Y72000D02*X309950Y75000D01*
X311750Y71250D02*X312500Y70500D01*
X311750Y72450D02*Y71250D01*
Y72450D02*X312800Y73500D01*
X313700D01*
X314750Y72450D01*
Y71250D01*
X314000Y70500D02*X314750Y71250D01*
X312500Y70500D02*X314000D01*
X311750Y74550D02*X312800Y73500D01*
X311750Y75750D02*Y74550D01*
Y75750D02*X312500Y76500D01*
X314000D01*
X314750Y75750D01*
Y74550D01*
X313700Y73500D02*X314750Y74550D01*
X316550Y74250D02*X317300D01*
X316550Y72750D02*X317300D01*
X319100Y76500D02*X322100D01*
X319100D02*Y73500D01*
X319850Y74250D01*
X321350D01*
X322100Y73500D01*
Y71250D01*
X321350Y70500D02*X322100Y71250D01*
X319850Y70500D02*X321350D01*
X319100Y71250D02*X319850Y70500D01*
X326150Y76500D02*X326900Y75750D01*
X324650Y76500D02*X326150D01*
X323900Y75750D02*X324650Y76500D01*
X323900Y75750D02*Y71250D01*
X324650Y70500D01*
X326150Y73800D02*X326900Y73050D01*
X323900Y73800D02*X326150D01*
X324650Y70500D02*X326150D01*
X326900Y71250D01*
Y73050D02*Y71250D01*
X331400Y75000D02*Y70500D01*
Y75000D02*X332450Y76500D01*
X334100D01*
X335150Y75000D01*
Y70500D01*
X331400Y73500D02*X335150D01*
X336950Y76500D02*Y70500D01*
Y76500D02*X339200Y73500D01*
X341450Y76500D01*
Y70500D01*
X348950Y76500D02*X349700Y75750D01*
X346700Y76500D02*X348950D01*
X345950Y75750D02*X346700Y76500D01*
X345950Y75750D02*Y71250D01*
X346700Y70500D01*
X348950D01*
X349700Y71250D01*
Y72750D02*Y71250D01*
X348950Y73500D02*X349700Y72750D01*
X347450Y73500D02*X348950D01*
X351500Y76500D02*Y70500D01*
Y76500D02*X353750Y73500D01*
X356000Y76500D01*
Y70500D01*
X357800Y76500D02*X360800D01*
X359300D02*Y70500D01*
X365300Y76500D02*Y71250D01*
X366050Y70500D01*
X367550D01*
X368300Y71250D01*
Y76500D02*Y71250D01*
X370100Y76500D02*X373100D01*
X371600D02*Y70500D01*
X375950D02*X377900D01*
X374900Y71550D02*X375950Y70500D01*
X374900Y75450D02*Y71550D01*
Y75450D02*X375950Y76500D01*
X377900D01*
X200000Y90000D02*Y85500D01*
Y90000D02*X201050Y91500D01*
X202700D01*
X203750Y90000D01*
Y85500D01*
X200000Y88500D02*X203750D01*
X205550D02*Y86250D01*
X206300Y85500D01*
X207800D01*
X208550Y86250D01*
Y88500D02*Y86250D01*
X211100Y91500D02*Y86250D01*
X211850Y85500D01*
X210350Y89250D02*X211850D01*
X213350Y91500D02*Y85500D01*
Y87750D02*X214100Y88500D01*
X215600D01*
X216350Y87750D01*
Y85500D01*
X218150Y87750D02*Y86250D01*
Y87750D02*X218900Y88500D01*
X220400D01*
X221150Y87750D01*
Y86250D01*
X220400Y85500D02*X221150Y86250D01*
X218900Y85500D02*X220400D01*
X218150Y86250D02*X218900Y85500D01*
X223700Y87750D02*Y85500D01*
Y87750D02*X224450Y88500D01*
X225950D01*
X222950D02*X223700Y87750D01*
X227750Y89250D02*X228500D01*
X227750Y87750D02*X228500D01*
X233000Y91500D02*Y85500D01*
Y91500D02*X235250Y88500D01*
X237500Y91500D01*
Y85500D01*
G54D48*X239300Y90000D02*Y89850D01*
G54D47*Y87750D02*Y85500D01*
X241550Y88500D02*X243800D01*
X240800Y87750D02*X241550Y88500D01*
X240800Y87750D02*Y86250D01*
X241550Y85500D01*
X243800D01*
X245600Y91500D02*Y85500D01*
Y87750D02*X246350Y88500D01*
X247850D01*
X248600Y87750D01*
Y85500D01*
X252650Y88500D02*X253400Y87750D01*
X251150Y88500D02*X252650D01*
X250400Y87750D02*X251150Y88500D01*
X250400Y87750D02*Y86250D01*
X251150Y85500D01*
X253400Y88500D02*Y86250D01*
X254150Y85500D01*
X251150D02*X252650D01*
X253400Y86250D01*
X256700Y85500D02*X258950D01*
X255950Y86250D02*X256700Y85500D01*
X255950Y87750D02*Y86250D01*
Y87750D02*X256700Y88500D01*
X258200D01*
X258950Y87750D01*
X255950Y87000D02*X258950D01*
Y87750D02*Y87000D01*
X260750Y91500D02*Y86250D01*
X261500Y85500D01*
X266450Y91500D02*Y85500D01*
X265700Y91500D02*X268700D01*
X269450Y90750D01*
Y89250D01*
X268700Y88500D02*X269450Y89250D01*
X266450Y88500D02*X268700D01*
X272000Y85500D02*X274250D01*
X271250Y86250D02*X272000Y85500D01*
X271250Y87750D02*Y86250D01*
Y87750D02*X272000Y88500D01*
X273500D01*
X274250Y87750D01*
X271250Y87000D02*X274250D01*
Y87750D02*Y87000D01*
X276800Y91500D02*Y86250D01*
X277550Y85500D01*
X276050Y89250D02*X277550D01*
X279800Y85500D02*X282050D01*
X279050Y86250D02*X279800Y85500D01*
X279050Y87750D02*Y86250D01*
Y87750D02*X279800Y88500D01*
X281300D01*
X282050Y87750D01*
X279050Y87000D02*X282050D01*
Y87750D02*Y87000D01*
X284600Y87750D02*Y85500D01*
Y87750D02*X285350Y88500D01*
X286850D01*
X283850D02*X284600Y87750D01*
X289400Y85500D02*X291650D01*
X292400Y86250D01*
X291650Y87000D02*X292400Y86250D01*
X289400Y87000D02*X291650D01*
X288650Y87750D02*X289400Y87000D01*
X288650Y87750D02*X289400Y88500D01*
X291650D01*
X292400Y87750D01*
X288650Y86250D02*X289400Y85500D01*
X294950D02*X297200D01*
X294200Y86250D02*X294950Y85500D01*
X294200Y87750D02*Y86250D01*
Y87750D02*X294950Y88500D01*
X296450D01*
X297200Y87750D01*
X294200Y87000D02*X297200D01*
Y87750D02*Y87000D01*
X299750Y87750D02*Y85500D01*
Y87750D02*X300500Y88500D01*
X301250D01*
X302000Y87750D01*
Y85500D01*
X299000Y88500D02*X299750Y87750D01*
X200000Y106500D02*X203000D01*
X201500D02*Y100500D01*
G54D48*X204800Y105000D02*Y104850D01*
G54D47*Y102750D02*Y100500D01*
X207050Y106500D02*Y101250D01*
X207800Y100500D01*
X206300Y104250D02*X207800D01*
X209300Y106500D02*Y101250D01*
X210050Y100500D01*
X212300D02*X214550D01*
X211550Y101250D02*X212300Y100500D01*
X211550Y102750D02*Y101250D01*
Y102750D02*X212300Y103500D01*
X213800D01*
X214550Y102750D01*
X211550Y102000D02*X214550D01*
Y102750D02*Y102000D01*
X216350Y104250D02*X217100D01*
X216350Y102750D02*X217100D01*
X221600Y101250D02*X222350Y100500D01*
X221600Y105750D02*X222350Y106500D01*
X221600Y105750D02*Y101250D01*
X224150Y103500D02*Y101250D01*
X224900Y100500D01*
X226400D01*
X227150Y101250D01*
Y103500D02*Y101250D01*
X229700Y102750D02*Y100500D01*
Y102750D02*X230450Y103500D01*
X231200D01*
X231950Y102750D01*
Y100500D01*
X228950Y103500D02*X229700Y102750D01*
X233750Y106500D02*Y100500D01*
Y102750D02*X236000Y100500D01*
X233750Y102750D02*X235250Y104250D01*
X238550Y102750D02*Y100500D01*
Y102750D02*X239300Y103500D01*
X240050D01*
X240800Y102750D01*
Y100500D01*
X237800Y103500D02*X238550Y102750D01*
X242600D02*Y101250D01*
Y102750D02*X243350Y103500D01*
X244850D01*
X245600Y102750D01*
Y101250D01*
X244850Y100500D02*X245600Y101250D01*
X243350Y100500D02*X244850D01*
X242600Y101250D02*X243350Y100500D01*
X247400Y103500D02*Y101250D01*
X248150Y100500D01*
X248900D01*
X249650Y101250D01*
Y103500D02*Y101250D01*
X250400Y100500D01*
X251150D01*
X251900Y101250D01*
Y103500D02*Y101250D01*
X254450Y102750D02*Y100500D01*
Y102750D02*X255200Y103500D01*
X255950D01*
X256700Y102750D01*
Y100500D01*
X253700Y103500D02*X254450Y102750D01*
X258500Y106500D02*X259250Y105750D01*
Y101250D01*
X258500Y100500D02*X259250Y101250D01*
X263750Y103500D02*X266750D01*
X271250Y106500D02*Y100500D01*
Y106500D02*X274250D01*
X271250Y103800D02*X273500D01*
X278300Y103500D02*X279050Y102750D01*
X276800Y103500D02*X278300D01*
X276050Y102750D02*X276800Y103500D01*
X276050Y102750D02*Y101250D01*
X276800Y100500D01*
X279050Y103500D02*Y101250D01*
X279800Y100500D01*
X276800D02*X278300D01*
X279050Y101250D01*
X281600Y106500D02*Y100500D01*
Y101250D02*X282350Y100500D01*
X283850D01*
X284600Y101250D01*
Y102750D02*Y101250D01*
X283850Y103500D02*X284600Y102750D01*
X282350Y103500D02*X283850D01*
X281600Y102750D02*X282350Y103500D01*
X287150Y102750D02*Y100500D01*
Y102750D02*X287900Y103500D01*
X289400D01*
X286400D02*X287150Y102750D01*
G54D48*X291200Y105000D02*Y104850D01*
G54D47*Y102750D02*Y100500D01*
X293450Y103500D02*X295700D01*
X292700Y102750D02*X293450Y103500D01*
X292700Y102750D02*Y101250D01*
X293450Y100500D01*
X295700D01*
X299750Y103500D02*X300500Y102750D01*
X298250Y103500D02*X299750D01*
X297500Y102750D02*X298250Y103500D01*
X297500Y102750D02*Y101250D01*
X298250Y100500D01*
X300500Y103500D02*Y101250D01*
X301250Y100500D01*
X298250D02*X299750D01*
X300500Y101250D01*
X303800Y106500D02*Y101250D01*
X304550Y100500D01*
X303050Y104250D02*X304550D01*
G54D48*X306050Y105000D02*Y104850D01*
G54D47*Y102750D02*Y100500D01*
X307550Y102750D02*Y101250D01*
Y102750D02*X308300Y103500D01*
X309800D01*
X310550Y102750D01*
Y101250D01*
X309800Y100500D02*X310550Y101250D01*
X308300Y100500D02*X309800D01*
X307550Y101250D02*X308300Y100500D01*
X313100Y102750D02*Y100500D01*
Y102750D02*X313850Y103500D01*
X314600D01*
X315350Y102750D01*
Y100500D01*
X312350Y103500D02*X313100Y102750D01*
X320600Y106500D02*Y100500D01*
X322550Y106500D02*X323600Y105450D01*
Y101550D01*
X322550Y100500D02*X323600Y101550D01*
X319850Y100500D02*X322550D01*
X319850Y106500D02*X322550D01*
X326150Y102750D02*Y100500D01*
Y102750D02*X326900Y103500D01*
X328400D01*
X325400D02*X326150Y102750D01*
X332450Y103500D02*X333200Y102750D01*
X330950Y103500D02*X332450D01*
X330200Y102750D02*X330950Y103500D01*
X330200Y102750D02*Y101250D01*
X330950Y100500D01*
X333200Y103500D02*Y101250D01*
X333950Y100500D01*
X330950D02*X332450D01*
X333200Y101250D01*
X335750Y103500D02*Y101250D01*
X336500Y100500D01*
X337250D01*
X338000Y101250D01*
Y103500D02*Y101250D01*
X338750Y100500D01*
X339500D01*
X340250Y101250D01*
Y103500D02*Y101250D01*
G54D48*X342050Y105000D02*Y104850D01*
G54D47*Y102750D02*Y100500D01*
X344300Y102750D02*Y100500D01*
Y102750D02*X345050Y103500D01*
X345800D01*
X346550Y102750D01*
Y100500D01*
X343550Y103500D02*X344300Y102750D01*
X350600Y103500D02*X351350Y102750D01*
X349100Y103500D02*X350600D01*
X348350Y102750D02*X349100Y103500D01*
X348350Y102750D02*Y101250D01*
X349100Y100500D01*
X350600D01*
X351350Y101250D01*
X348350Y99000D02*X349100Y98250D01*
X350600D01*
X351350Y99000D01*
Y103500D02*Y99000D01*
M02*
