G04 start of page 8 for group -4079 idx -4079 *
G04 Title: (unknown), topsilk *
G04 Creator: pcb 20110918 *
G04 CreationDate: Sun 25 Aug 2013 03:08:56 AM GMT UTC *
G04 For: railfan *
G04 Format: Gerber/RS-274X *
G04 PCB-Dimensions: 85000 48000 *
G04 PCB-Coordinate-Origin: lower left *
%MOIN*%
%FSLAX25Y25*%
%LNTOPSILK*%
%ADD39C,0.0080*%
%ADD38C,0.0100*%
%ADD37C,0.0001*%
G54D37*G36*
X35500Y20500D02*X37500D01*
Y18500D01*
X35500D01*
Y20500D01*
G37*
G54D38*X500Y47500D02*X84500D01*
X500Y500D02*Y47500D01*
X67500Y3000D02*X66500Y2000D01*
X41000D01*
X40000Y3000D01*
X84500Y47500D02*Y500D01*
X500D01*
X32755Y10393D02*Y9607D01*
X27245Y10393D02*Y9607D01*
X37245Y10393D02*Y9607D01*
X42755Y10393D02*Y9607D01*
X22755Y32393D02*Y31607D01*
X17245Y32393D02*Y31607D01*
Y16393D02*Y15607D01*
X22755Y16393D02*Y15607D01*
X32755Y26393D02*Y25607D01*
X27245Y26393D02*Y25607D01*
X61000Y37000D02*X83000D01*
Y15000D01*
X79000Y11000D02*X57000D01*
Y33000D01*
X47245Y10393D02*Y9607D01*
X52755Y10393D02*Y9607D01*
X39000Y20504D02*X37000Y22504D01*
X51000Y43496D02*Y20504D01*
X39000D02*X51000D01*
X37000Y43496D02*Y22504D01*
Y43496D02*X51000D01*
X2500Y39000D02*Y9000D01*
X12500D01*
Y39000D01*
X2500D01*
Y29000D02*X12500D01*
Y39000D01*
G54D39*X20850Y5650D02*X22850D01*
X23350Y5150D01*
Y4150D01*
X22850Y3650D02*X23350Y4150D01*
X21350Y3650D02*X22850D01*
X21350Y5650D02*Y1650D01*
X22150Y3650D02*X23350Y1650D01*
X24550Y4850D02*X25350Y5650D01*
Y1650D01*
X24550D02*X26050D01*
X18636Y39650D02*X19936D01*
X17936Y40350D02*X18636Y39650D01*
X17936Y42950D02*Y40350D01*
Y42950D02*X18636Y43650D01*
X19936D01*
X21136Y42850D02*X21936Y43650D01*
Y39650D01*
X21136D02*X22636D01*
X14550Y4650D02*X15850D01*
X13850Y5350D02*X14550Y4650D01*
X13850Y7950D02*Y5350D01*
Y7950D02*X14550Y8650D01*
X15850D01*
X17050Y6150D02*X19050Y8650D01*
X17050Y6150D02*X19550D01*
X19050Y8650D02*Y4650D01*
X26350Y37650D02*X28350D01*
X28850Y37150D01*
Y36150D01*
X28350Y35650D02*X28850Y36150D01*
X26850Y35650D02*X28350D01*
X26850Y37650D02*Y33650D01*
X27650Y35650D02*X28850Y33650D01*
X30050Y37150D02*X30550Y37650D01*
X32050D01*
X32550Y37150D01*
Y36150D01*
X30050Y33650D02*X32550Y36150D01*
X30050Y33650D02*X32550D01*
X65507Y4150D02*X66807D01*
X64807Y4850D02*X65507Y4150D01*
X64807Y7450D02*Y4850D01*
Y7450D02*X65507Y8150D01*
X66807D01*
X68007Y7650D02*X68507Y8150D01*
X69507D01*
X70007Y7650D01*
X69507Y4150D02*X70007Y4650D01*
X68507Y4150D02*X69507D01*
X68007Y4650D02*X68507Y4150D01*
Y6350D02*X69507D01*
X70007Y7650D02*Y6850D01*
Y5850D02*Y4650D01*
Y5850D02*X69507Y6350D01*
X70007Y6850D02*X69507Y6350D01*
X55507Y4150D02*X56807D01*
X54807Y4850D02*X55507Y4150D01*
X54807Y7450D02*Y4850D01*
Y7450D02*X55507Y8150D01*
X56807D01*
X58007Y7650D02*X58507Y8150D01*
X60007D01*
X60507Y7650D01*
Y6650D01*
X58007Y4150D02*X60507Y6650D01*
X58007Y4150D02*X60507D01*
X53500Y43500D02*Y40000D01*
X54000Y39500D01*
X55000D01*
X55500Y40000D01*
Y43500D02*Y40000D01*
X56700Y42700D02*X57500Y43500D01*
Y39500D01*
X56700D02*X58200D01*
M02*
